<svg xmlns="http://www.w3.org/2000/svg" viewBox="0 0 64 64"><g id="_05-Calendar" data-name="05-Calendar"><rect x="1" y="6" width="62" height="16" style="fill:#795799"/><rect x="1" y="22" width="62" height="36" style="fill:#f0f0f0"/><rect x="1" y="58" width="62" height="5" style="fill:#e0e0e0"/><path d="M63,58H1v5H5V61a1,1,0,0,1,1-1H63Z" style="fill:#bfbfbf"/><rect x="5" y="61" width="58" height="1" style="fill:#bfbfbf"/><rect x="6" y="14" width="10" height="2" style="fill:#f0f0f0"/><rect x="6" y="17" width="6" height="2" style="fill:#f0f0f0"/><rect x="1" y="6" width="62" height="2" style="fill:#573875"/><path d="M6,6V9a1.988,1.988,0,0,0,3,1.723A1.994,1.994,0,0,1,8,9V6Z" style="fill:#573875"/><path d="M50,6V9a1.988,1.988,0,0,0,3,1.723A1.994,1.994,0,0,1,52,9V6Z" style="fill:#573875"/><rect x="8" y="1" width="4" height="10" rx="2" style="fill:#505050"/><rect x="52" y="1" width="4" height="10" rx="2" style="fill:#505050"/><path d="M54,9V3a1.994,1.994,0,0,1,1-1.723A1.988,1.988,0,0,0,52,3V9a1.988,1.988,0,0,0,3,1.723A1.994,1.994,0,0,1,54,9Z" style="fill:#3a393f"/><path d="M10,9V3a1.994,1.994,0,0,1,1-1.723A1.988,1.988,0,0,0,8,3V9a1.988,1.988,0,0,0,3,1.723A1.994,1.994,0,0,1,10,9Z" style="fill:#3a393f"/><path d="M1,22V58H63V54H35A30,30,0,0,1,5,24V22Z" style="fill:#e0e0e0"/><rect x="58" y="50" width="2" height="2" style="fill:#795799"/><rect x="58" y="53" width="2" height="2" style="fill:#795799"/><rect x="55" y="53" width="2" height="2" style="fill:#795799"/><path d="M37.454,38.844a8,8,0,1,0-10.908,0,9,9,0,1,0,10.908,0ZM32,51a5,5,0,1,1,5-5A5,5,0,0,1,32,51Zm0-22a4,4,0,1,1-4,4A4,4,0,0,1,32,29Z" style="fill:#cfbce0"/><path d="M36,33a4,4,0,1,0-4,4A4,4,0,0,0,36,33ZM32,51a5,5,0,1,0-5-5A5,5,0,0,0,32,51Zm3.72-12.08a8,8,0,1,1-7.44,0,7,7,0,1,1,7.44,0Z" style="fill:#795799"/></g></svg>