<svg xmlns="http://www.w3.org/2000/svg" width="22" height="24" viewBox="0 0 22 24">
  <g>
    <path d="M22,2H18V0H16V2H6V0H4V2H0V21H4.171l1.416-1.417A5.691,5.691,0,0,1,5.344,19H3V15H5.343a6.07,6.07,0,0,1,.244-.585L3.929,12.757,6.758,9.929l1.658,1.657A5.707,5.707,0,0,1,9,11.343V9h4v2.343a5.707,5.707,0,0,1,.584.243l1.658-1.657,2.828,2.828-1.657,1.657a5.984,5.984,0,0,1,.244.586H19v4H16.656a5.819,5.819,0,0,1-.243.585L17.83,21H22ZM20,7H2V4H4V6H6V4H16V6h2V4h2Z"/>
    <path d="M6.757,22.656l1.488-1.489A4.951,4.951,0,0,0,10,21.9V24h2V21.9a5,5,0,0,0,1.754-.73l1.488,1.488,1.414-1.415-1.488-1.486A4.951,4.951,0,0,0,15.9,18H18V16H15.9a4.977,4.977,0,0,0-.731-1.756l1.488-1.487-1.414-1.414-1.488,1.488A4.919,4.919,0,0,0,12,12.1V10H10v2.1a4.963,4.963,0,0,0-1.754.73L6.758,11.343,5.343,12.757l1.488,1.488A4.96,4.96,0,0,0,6.1,16H4v2H6.1a4.987,4.987,0,0,0,.73,1.753L5.343,21.242ZM11,14a3,3,0,1,1-3,3A3,3,0,0,1,11,14Z"/>
  </g>
</svg>
