<svg xmlns="http://www.w3.org/2000/svg" viewBox="0 0 48 48"><defs><style>.cls-1{fill:#dad7e5;}.cls-2{fill:#edebf2;}.cls-3{fill:#c6c3d8;}.cls-4{fill:#6fabe6;}.cls-5{fill:#82bcf4;}</style></defs><title>report document</title><g id="report_document" data-name="report document"><polygon class="cls-1" points="43 8 43 41 11 41 11 1 37 1 43 8"/><path class="cls-2" d="M43,8V39H41a2,2,0,0,1-2-2V13.26L31.92,5H16a2,2,0,0,1-2-2V1H37Z"/><polygon class="cls-3" points="43 8 37 8 37 1 43 8"/><polygon class="cls-1" points="37 14 37 47 5 47 5 7 31 7 37 14"/><polygon class="cls-1" points="37 14 37 47 5 47 5 7 31 7 37 14"/><path class="cls-2" d="M37,14V45H11a3,3,0,0,1-3-3V7H31Z"/><polygon class="cls-3" points="37 14 31 14 31 7 37 14"/><rect class="cls-4" x="10" y="24" width="22" height="10"/><path class="cls-5" d="M32,24v8H21a8,8,0,0,1-8-8Z"/><rect class="cls-4" x="10" y="12" width="12" height="4"/><path class="cls-5" d="M22,12v2H14a2,2,0,0,1-2-2Z"/><path class="cls-3" d="M32,21H10a1,1,0,0,1,0-2H32A1,1,0,0,1,32,21Z"/><path class="cls-3" d="M22,39H10a1,1,0,0,1,0-2H22A1,1,0,0,1,22,39Z"/><path class="cls-3" d="M32,43H10a1,1,0,0,1,0-2H32A1,1,0,0,1,32,43Z"/></g></svg>