<?xml version="1.0" encoding="utf-8"?>
<!-- Generator: Adobe Illustrator 18.0.0, SVG Export Plug-In . SVG Version: 6.00 Build 0)  -->
<!DOCTYPE svg PUBLIC "-//W3C//DTD SVG 1.1//EN" "http://www.w3.org/Graphics/SVG/1.1/DTD/svg11.dtd">
<svg version="1.1" id="ecommerce_1_" xmlns="http://www.w3.org/2000/svg" xmlns:xlink="http://www.w3.org/1999/xlink" x="0px"
	 y="0px" viewBox="0 0 115 115" style="enable-background:new 0 0 115 115;" xml:space="preserve">
<style type="text/css">
	.st0{fill:#FFEEAD;}
	.st1{fill:#C9B77D;}
	.st2{fill:#99734A;}
	.st3{fill:#FF6F69;}
	.st4{fill:#96CEB4;}
	.st5{fill:none;}
	.st6{fill:#AA9865;}
	.st7{fill:#71A58A;}
	.st8{fill:#FFCC5C;}
	.st9{fill:#825E3B;}
	.st10{fill:#639376;}
	.st11{fill:#E05858;}
	.st12{fill:#C1821E;}
	.st13{fill:#D6A041;}
	.st14{fill:#B28559;}
	.st15{fill:#BF4343;}
	.st16{fill:#D3C089;}
	.st17{fill:#7C5C3C;}
	.st18{fill:#FDCC5C;}
	.st19{fill:#FFFFFF;}
</style>
<g id="data_collection_system_1_">
	<g>
		<g>
			<g>
				<g>
					<path class="st0" d="M110.324,31.963H42.345c-2.583,0-4.676,2.094-4.676,4.676v11.558c0,2.583,2.094,4.676,4.676,4.676h67.979
						c2.582,0,4.676-2.094,4.676-4.676V36.639C115,34.057,112.906,31.963,110.324,31.963z"/>
				</g>
			</g>
			<g>
				<g>
					<path class="st1" d="M110.324,49.846H42.345c-2.583,0-4.676-2.094-4.676-4.676v3.028c0,2.583,2.094,4.676,4.676,4.676h67.979
						c2.583,0,4.676-2.094,4.676-4.676v-3.028C115,47.752,112.906,49.846,110.324,49.846z"/>
				</g>
			</g>
			<g>
				<g>
					<g>
						<path class="st2" d="M104.855,39.991h-7.939c-0.725,0-1.318,0.593-1.318,1.319c0,0.725,0.593,1.318,1.318,1.318h7.939
							c0.725,0,1.318-0.593,1.318-1.318C106.173,40.585,105.58,39.991,104.855,39.991z"/>
					</g>
				</g>
				<g>
					<g>
						<circle class="st3" cx="88.371" cy="41.31" r="2.177"/>
					</g>
				</g>
				<g>
					<g>
						<circle class="st4" cx="81.231" cy="41.31" r="2.177"/>
					</g>
				</g>
			</g>
		</g>
		<g>
			<g>
				<g>
					<path class="st0" d="M110.324,52.652H42.345c-2.583,0-4.676,2.094-4.676,4.676v11.558c0,2.582,2.094,4.676,4.676,4.676h67.979
						c2.582,0,4.676-2.094,4.676-4.676V57.328C115,54.746,112.906,52.652,110.324,52.652z"/>
				</g>
			</g>
			<g>
				<g>
					<path class="st1" d="M110.324,70.535H42.345c-2.583,0-4.676-2.094-4.676-4.676v3.028c0,2.582,2.094,4.676,4.676,4.676h67.979
						c2.583,0,4.676-2.094,4.676-4.676v-3.028C115,68.441,112.906,70.535,110.324,70.535z"/>
				</g>
			</g>
			<g>
				<g>
					<g>
						<path class="st2" d="M104.855,60.681h-7.939c-0.725,0-1.318,0.593-1.318,1.318c0,0.725,0.593,1.319,1.318,1.319h7.939
							c0.725,0,1.318-0.593,1.318-1.319C106.173,61.274,105.58,60.681,104.855,60.681z"/>
					</g>
				</g>
				<g>
					<g>
						<circle class="st3" cx="88.371" cy="61.999" r="2.177"/>
					</g>
				</g>
				<g>
					<g>
						<circle class="st4" cx="81.231" cy="61.999" r="2.177"/>
					</g>
				</g>
			</g>
		</g>
		<g>
			<g>
				<g>
					<path class="st0" d="M110.324,73.341H42.345c-2.583,0-4.676,2.094-4.676,4.676v11.558c0,2.583,2.094,4.676,4.676,4.676h67.979
						c2.582,0,4.676-2.094,4.676-4.676V78.017C115,75.435,112.906,73.341,110.324,73.341z"/>
				</g>
			</g>
			<g>
				<g>
					<path class="st1" d="M110.324,91.224H42.345c-2.583,0-4.676-2.094-4.676-4.676v3.028c0,2.582,2.094,4.676,4.676,4.676h67.979
						c2.583,0,4.676-2.094,4.676-4.676v-3.028C115,89.13,112.906,91.224,110.324,91.224z"/>
				</g>
			</g>
			<g>
				<g>
					<g>
						<path class="st2" d="M104.855,81.37h-7.939c-0.725,0-1.318,0.593-1.318,1.319c0,0.725,0.593,1.318,1.318,1.318h7.939
							c0.725,0,1.318-0.593,1.318-1.318C106.173,81.963,105.58,81.37,104.855,81.37z"/>
					</g>
				</g>
				<g>
					<g>
						<circle class="st3" cx="88.371" cy="82.688" r="2.177"/>
					</g>
				</g>
				<g>
					<g>
						<circle class="st4" cx="81.231" cy="82.688" r="2.177"/>
					</g>
				</g>
			</g>
		</g>
		<g>
			<g>
				<g>
					<path class="st0" d="M110.324,94.03H42.345c-2.583,0-4.676,2.094-4.676,4.676v11.558c0,2.583,2.094,4.676,4.676,4.676h67.979
						c2.582,0,4.676-2.094,4.676-4.676V98.707C115,96.124,112.906,94.03,110.324,94.03z"/>
				</g>
			</g>
			<g>
				<g>
					<path class="st1" d="M110.324,111.913H42.345c-2.583,0-4.676-2.094-4.676-4.676v3.028c0,2.583,2.094,4.676,4.676,4.676h67.979
						c2.583,0,4.676-2.094,4.676-4.676v-3.028C115,109.82,112.906,111.913,110.324,111.913z"/>
				</g>
			</g>
			<g>
				<g>
					<g>
						<path class="st2" d="M104.855,102.059h-7.939c-0.725,0-1.318,0.593-1.318,1.318s0.593,1.318,1.318,1.318h7.939
							c0.725,0,1.318-0.593,1.318-1.318S105.58,102.059,104.855,102.059z"/>
					</g>
				</g>
				<g>
					<g>
						<circle class="st3" cx="88.371" cy="103.377" r="2.177"/>
					</g>
				</g>
				<g>
					<g>
						<circle class="st4" cx="81.231" cy="103.377" r="2.177"/>
					</g>
				</g>
			</g>
		</g>
	</g>
	<g>
		<path class="st5" d="M36.67,21.047c-0.131,0.021-0.257,0.054-0.387,0.08c0.263-0.053,0.534-0.085,0.803-0.122
			C36.946,21.023,36.81,21.024,36.67,21.047z"/>
		<path class="st0" d="M49.358,34.591c0-0.91-0.129-1.788-0.349-2.628h-6.664c-2.583,0-4.676,2.094-4.676,4.676v8.219
			c0.436,0.056,0.877,0.094,1.327,0.094C44.719,44.953,49.358,40.314,49.358,34.591z"/>
		<path class="st0" d="M42.345,91.224h9.767c0.002-0.07,0.021-0.136,0.021-0.207c0-3.879-3.145-7.024-7.024-7.024
			c-3.188,0-5.849,2.137-6.707,5.047C39.23,90.349,40.682,91.224,42.345,91.224z"/>
		<path class="st0" d="M41.433,73.471c-0.027-0.006-0.054-0.013-0.081-0.019c-1.904,0.412-3.357,1.986-3.621,3.941
			c1.155-0.627,2.392-1.119,3.701-1.438V73.471z"/>
		<path class="st0" d="M42.345,94.03c-0.341,0-0.672,0.041-0.993,0.111c0.321,0.069,0.651,0.111,0.993,0.111h0
			c-0.341,0-0.672-0.041-0.993-0.111c-0.73,0.158-1.385,0.498-1.944,0.954c1.275,1.778,3.346,2.946,5.701,2.946
			c2.706,0,5.028-1.547,6.201-3.79c0.039-0.075,0.084-0.145,0.12-0.221H42.345z"/>
		<path class="st1" d="M49.009,31.963c0.22,0.841,0.349,1.718,0.349,2.628c0,5.723-4.639,10.362-10.362,10.362
			c-0.451,0-0.892-0.039-1.327-0.094v0.311c0,2.583,2.094,4.676,4.676,4.676h19.574l-0.955-0.955l-2.423-2.424
			c0.104-0.171,0.211-0.338,0.311-0.512l0.801-1.546c0.205-0.43,0.405-0.862,0.583-1.307c0.4-0.997,0.722-2.03,0.98-3.09h5.41
			c0.88,0,1.593-0.713,1.593-1.593v-6.457H49.009z"/>
		<path class="st6" d="M62.367,50.294l-0.448-0.448H42.345c-2.583,0-4.676-2.094-4.676-4.676v3.028c0,1.291,0.523,2.46,1.37,3.307
			c0.623,0.623,1.422,1.066,2.314,1.259c0.32-0.069,0.651-0.111,0.992-0.111h19.917l0.105-0.105
			C62.989,51.925,62.989,50.916,62.367,50.294z"/>
		<path class="st7" d="M41.353,52.763c0.32,0.069,0.651,0.111,0.992,0.111h0C42.004,52.873,41.673,52.832,41.353,52.763
			L41.353,52.763z"/>
		<path class="st1" d="M42.345,52.652c-0.341,0-0.672,0.041-0.992,0.111c0.32,0.069,0.651,0.111,0.992,0.111h0
			c-0.341,0-0.672-0.041-0.992-0.111c-2.105,0.456-3.684,2.324-3.684,4.566v6.485h5.156c0.88,0,1.593-0.713,1.593-1.593v-5.409
			c2.31-0.562,4.478-1.472,6.454-2.676l3.827,3.827c0.622,0.622,1.631,0.622,2.253,0l5.089-5.088l0.221-0.221H42.345z"/>
		<path class="st1" d="M63.839,87.342h-3.667c-0.381-1.566-0.998-3.036-1.814-4.375l1.14-1.14l1.455-1.455
			c0.422-0.422,0.422-1.106,0-1.528L60,77.893l-2.719-2.719c-0.422-0.422-1.106-0.422-1.527,0l-2.594,2.595
			c-1.34-0.816-2.809-1.433-4.375-1.814v-2.392h-6.439h0c-0.312,0-0.617-0.034-0.912-0.092v2.484
			c-1.31,0.319-2.546,0.811-3.701,1.438c-0.028,0.206-0.063,0.411-0.063,0.625v7.418v1.112c0,0.919,0.275,1.77,0.732,2.492
			c0.858-2.91,3.519-5.047,6.707-5.047c3.879,0,7.024,3.145,7.024,7.024c0,0.071-0.019,0.137-0.021,0.207h12.807v-2.802
			C64.919,87.825,64.435,87.342,63.839,87.342z"/>
		<path class="st6" d="M47.704,71.208h-5.191c-0.597,0-1.08,0.484-1.08,1.08v1.146v0.037c0.295,0.058,0.599,0.092,0.912,0.092h6.439
			v-0.221v-1.054C48.784,71.691,48.301,71.208,47.704,71.208z"/>
		<path class="st6" d="M52.112,91.224h-9.767c-1.664,0-3.115-0.875-3.944-2.184c-0.458-0.723-0.732-1.574-0.732-2.492v3.028
			c0,0.725,0.179,1.403,0.473,2.015c0.616,1.281,1.786,2.242,3.21,2.55c0.321-0.07,0.651-0.111,0.993-0.111h9.085h2.482h10.922
			c0.054-0.129,0.084-0.27,0.084-0.418v-2.388H52.112z"/>
		<path class="st1" d="M53.912,94.03H51.43c-0.036,0.076-0.081,0.147-0.12,0.221c-1.173,2.243-3.495,3.79-6.201,3.79
			c-2.354,0-4.426-1.168-5.701-2.946c-1.053,0.858-1.739,2.148-1.739,3.612v5.9c1.173,0.644,2.431,1.149,3.764,1.473v3.667
			c0,0.597,0.484,1.08,1.08,1.08h5.191c0.596,0,1.08-0.484,1.08-1.08v-3.667c1.566-0.381,3.035-0.998,4.375-1.814l2.594,2.594
			c0.422,0.422,1.106,0.422,1.527,0l3.67-3.67c0.422-0.422,0.422-1.106,0-1.527L60,100.711l-1.643-1.643
			c0.07-0.116,0.143-0.229,0.211-0.347l0.543-1.048c0.139-0.292,0.275-0.584,0.396-0.886c0.271-0.676,0.489-1.376,0.664-2.094h3.667
			c0.352,0,0.651-0.18,0.848-0.441c0.054-0.071,0.113-0.138,0.148-0.221H53.912z"/>
	</g>
	<g>
		<g>
			<g>
				<g>
					<path class="st4" d="M59.888,23.86c-0.562-2.31-1.472-4.478-2.676-6.454l1.681-1.681l2.146-2.146
						c0.622-0.622,0.622-1.631,0-2.253l-1.404-1.403l-4.011-4.011c-0.622-0.622-1.631-0.622-2.253,0l-3.827,3.827
						c-1.976-1.204-4.144-2.114-6.454-2.676v-5.41c0-0.88-0.713-1.593-1.593-1.593H33.84c-0.88,0-1.593,0.713-1.593,1.593v5.41
						c-2.31,0.562-4.478,1.472-6.454,2.676l-3.827-3.827c-0.622-0.622-1.631-0.622-2.253,0l-4.011,4.011l-1.404,1.403
						c-0.622,0.622-0.622,1.631,0,2.253l2.146,2.146l1.681,1.681c-1.203,1.976-2.114,4.144-2.676,6.454h-5.41
						c-0.88,0-1.593,0.713-1.593,1.593v7.657c0,0.88,0.713,1.593,1.593,1.593h5.41c0.258,1.06,0.58,2.093,0.98,3.09
						c0.471,1.175,1.044,2.295,1.696,3.364l-0.07,0.071l0.035,0.07l-2.361,2.311l-1.406,1.376c-0.634,0.62-0.639,1.638-0.012,2.265
						l5.402,5.402c0.622,0.622,1.631,0.622,2.253,0l3.827-3.827c1.976,1.204,4.144,2.114,6.454,2.676v5.409
						c0,0.88,0.713,1.593,1.593,1.593h7.657c0.88,0,1.593-0.713,1.593-1.593v-5.409c2.31-0.562,4.478-1.472,6.454-2.676l3.827,3.827
						c0.622,0.622,1.631,0.622,2.253,0l5.414-5.414c0.622-0.622,0.622-1.631,0-2.253l-1.403-1.403l-2.423-2.424
						c0.104-0.171,0.211-0.338,0.311-0.512l0.801-1.546c0.205-0.43,0.405-0.862,0.583-1.307c0.4-0.997,0.722-2.03,0.98-3.09h5.41
						c0.88,0,1.593-0.713,1.593-1.593v-7.657c0-0.88-0.713-1.593-1.593-1.593H59.888z M39.995,42.826
						c-9.4,1.542-17.412-6.47-15.87-15.871c0.934-5.693,5.525-10.284,11.218-11.218c9.401-1.542,17.413,6.47,15.871,15.871
						C50.279,37.301,45.688,41.892,39.995,42.826z"/>
				</g>
			</g>
		</g>
		<g>
			<g>
				<g>
					<path class="st2" d="M37.669,15.546c-7.586,0-13.735,6.15-13.735,13.735c0,7.586,6.15,13.735,13.735,13.735
						s13.735-6.149,13.735-13.735C51.404,21.696,45.255,15.546,37.669,15.546z M37.669,39.643c-5.723,0-10.362-4.639-10.362-10.362
						c0-5.723,4.639-10.362,10.362-10.362s10.362,4.639,10.362,10.362C48.031,35.004,43.392,39.643,37.669,39.643z"/>
				</g>
			</g>
		</g>
		<g>
			<g>
				<g>
					<path class="st7" d="M37.669,8.498c-11.479,0-20.784,9.305-20.784,20.784c0,11.479,9.305,20.784,20.784,20.784
						s20.784-9.305,20.784-20.784C58.453,17.803,49.148,8.498,37.669,8.498z M37.669,44.961c-8.659,0-15.679-7.019-15.679-15.679
						c0-8.659,7.02-15.679,15.679-15.679s15.679,7.02,15.679,15.679C53.348,37.941,46.328,44.961,37.669,44.961z"/>
				</g>
			</g>
		</g>
	</g>
	<g>
		<g>
			<g>
				<g>
					<path class="st4" d="M58.844,82.032c-0.381-1.566-0.998-3.035-1.814-4.375l1.14-1.14l1.455-1.455
						c0.422-0.422,0.422-1.106,0-1.527l-0.951-0.951l-2.719-2.719c-0.422-0.422-1.106-0.422-1.527,0l-2.594,2.594
						c-1.34-0.816-2.809-1.433-4.375-1.814v-3.667c0-0.597-0.484-1.08-1.08-1.08h-5.191c-0.597,0-1.08,0.484-1.08,1.08v3.667
						c-1.566,0.381-3.035,0.998-4.375,1.814l-2.594-2.594c-0.422-0.422-1.106-0.422-1.527,0l-2.719,2.719l-0.951,0.951
						c-0.422,0.422-0.422,1.106,0,1.527l1.455,1.455l1.14,1.14c-0.816,1.34-1.433,2.809-1.814,4.375h-3.667
						c-0.597,0-1.08,0.484-1.08,1.08v5.191c0,0.597,0.484,1.08,1.08,1.08h3.667c0.175,0.719,0.393,1.419,0.664,2.095
						c0.32,0.797,0.708,1.556,1.15,2.281l-0.048,0.048l0.024,0.047l-1.6,1.566l-0.953,0.933c-0.43,0.42-0.433,1.111-0.008,1.536
						l3.662,3.662c0.422,0.422,1.106,0.422,1.527,0l2.594-2.594c1.34,0.816,2.809,1.433,4.375,1.814v3.667
						c0,0.597,0.484,1.08,1.08,1.08h5.191c0.597,0,1.08-0.484,1.08-1.08v-3.667c1.566-0.381,3.035-0.998,4.375-1.814l2.594,2.594
						c0.422,0.422,1.106,0.422,1.527,0l3.67-3.67c0.422-0.422,0.422-1.106,0-1.527l-0.951-0.951l-1.643-1.643
						c0.07-0.116,0.143-0.229,0.211-0.347l0.543-1.048c0.139-0.292,0.275-0.584,0.396-0.886c0.271-0.676,0.489-1.376,0.664-2.095
						h3.667c0.597,0,1.08-0.484,1.08-1.08v-5.191c0-0.597-0.484-1.08-1.08-1.08H58.844z M45.358,94.889
						C38.986,95.935,33.554,90.503,34.6,84.13c0.633-3.859,3.745-6.972,7.604-7.605c6.373-1.045,11.804,4.386,10.759,10.759
						C52.33,91.144,49.217,94.256,45.358,94.889z"/>
				</g>
			</g>
		</g>
		<g>
			<g>
				<g>
					<path class="st2" d="M43.781,76.396c-5.142,0-9.311,4.169-9.311,9.311c0,5.143,4.169,9.311,9.311,9.311
						s9.311-4.169,9.311-9.311C53.093,80.565,48.924,76.396,43.781,76.396z M43.781,92.732c-3.879,0-7.024-3.145-7.024-7.024
						c0-3.879,3.145-7.024,7.024-7.024s7.024,3.145,7.024,7.024C50.806,89.587,47.661,92.732,43.781,92.732z"/>
				</g>
			</g>
		</g>
		<g>
			<g>
				<g>
					<path class="st7" d="M43.781,71.618c-7.781,0-14.089,6.308-14.089,14.089c0,7.781,6.308,14.089,14.089,14.089
						s14.089-6.308,14.089-14.089C57.871,77.926,51.563,71.618,43.781,71.618z M43.781,96.336c-5.87,0-10.629-4.758-10.629-10.629
						c0-5.87,4.759-10.629,10.629-10.629S54.41,79.838,54.41,85.708C54.41,91.578,49.652,96.336,43.781,96.336z"/>
				</g>
			</g>
		</g>
	</g>
	<g>
		<g>
			<g>
				<g>
					<g>
						<path class="st4" d="M28.119,71.679v-5.196c0-0.682-0.553-1.235-1.235-1.235h-2.142c-0.121-0.336-0.257-0.664-0.409-0.984
							l1.511-1.506c0.484-0.482,0.484-1.266,0-1.748l-3.69-3.677c-0.482-0.48-1.262-0.48-1.744,0l-1.516,1.511
							c-0.322-0.151-0.651-0.287-0.988-0.408v-2.131c0-0.682-0.553-1.235-1.235-1.235h-5.222c-0.682,0-1.235,0.553-1.235,1.235
							v2.131c-0.337,0.121-0.666,0.256-0.988,0.408L7.71,57.333c-0.482-0.48-1.262-0.48-1.744,0l-3.69,3.677
							c-0.484,0.482-0.484,1.266,0,1.748l1.511,1.506c-0.152,0.32-0.288,0.648-0.409,0.984H1.235C0.553,65.248,0,65.801,0,66.483
							v5.196c0,0.682,0.553,1.235,1.235,1.235h2.142c0.122,0.336,0.258,0.664,0.409,0.984l-1.511,1.506
							c-0.484,0.482-0.484,1.266,0,1.748l3.69,3.677c0.482,0.48,1.262,0.48,1.744,0l1.516-1.511
							c0.321,0.151,0.651,0.287,0.988,0.408v2.131c0,0.682,0.553,1.235,1.235,1.235h5.222c0.682,0,1.235-0.553,1.235-1.235v-2.131
							c0.337-0.121,0.666-0.256,0.988-0.408l1.516,1.511c0.482,0.48,1.262,0.48,1.744,0l3.69-3.677c0.484-0.482,0.484-1.266,0-1.748
							l-1.511-1.506c0.152-0.32,0.288-0.648,0.409-0.984h2.142C27.566,72.913,28.119,72.36,28.119,71.679z M14.059,75.523
							c-3.57,0-6.465-2.884-6.465-6.442c0-3.558,2.894-6.442,6.465-6.442c3.571,0,6.465,2.884,6.465,6.442
							C20.524,72.639,17.63,75.523,14.059,75.523z"/>
					</g>
				</g>
			</g>
			<g>
				<g>
					<g>
						<path class="st2" d="M14.059,62.635c-3.571,0-6.465,2.886-6.465,6.446c0,3.56,2.894,6.446,6.465,6.446
							s6.465-2.886,6.465-6.446C20.524,65.521,17.63,62.635,14.059,62.635z M14.059,72.794c-2.057,0-3.724-1.662-3.724-3.713
							c0-2.051,1.667-3.713,3.724-3.713s3.724,1.662,3.724,3.713C17.783,71.131,16.116,72.794,14.059,72.794z"/>
					</g>
				</g>
			</g>
		</g>
		<g>
			<g>
				<g>
					<g>
						<path class="st7" d="M14.059,58.43c-5.722,0-10.376,4.778-10.376,10.651c0,5.873,4.654,10.651,10.376,10.651
							s10.376-4.778,10.376-10.651C24.435,63.207,19.781,58.43,14.059,58.43z M14.059,76.858c-4.177,0-7.576-3.489-7.576-7.777
							c0-4.288,3.399-7.778,7.576-7.778c4.177,0,7.576,3.49,7.576,7.778C21.636,73.368,18.236,76.858,14.059,76.858z"/>
					</g>
				</g>
			</g>
		</g>
	</g>
</g>
</svg>
