<svg xmlns="http://www.w3.org/2000/svg" viewBox="0 0 64 64"><title>Artboard-15</title><g id="Calendar_Deadline" data-name="Calendar Deadline"><path d="M58,10H56a1,1,0,0,0-1,1v3A2,2,0,0,1,52.852,16,2.129,2.129,0,0,1,51,13.831V11a1,1,0,0,0-1-1H42a1,1,0,0,0-1,1v3A2,2,0,0,1,38.852,16,2.129,2.129,0,0,1,37,13.831V11a1,1,0,0,0-1-1H28a1,1,0,0,0-1,1v3A2,2,0,0,1,24.852,16,2.129,2.129,0,0,1,23,13.831V11a1,1,0,0,0-1-1H14a1,1,0,0,0-1,1v3A2,2,0,0,1,10.852,16,2.129,2.129,0,0,1,9,13.831V11a1,1,0,0,0-1-1H6a6.006,6.006,0,0,0-6,6V54a6.006,6.006,0,0,0,6,6H58a6.006,6.006,0,0,0,6-6V16A6.006,6.006,0,0,0,58,10Z" style="fill:#e6edff"/><path d="M58,10H56a1,1,0,0,0-1,1v3A2,2,0,0,1,52.852,16,2.129,2.129,0,0,1,51,13.831V11a1,1,0,0,0-1-1H42a1,1,0,0,0-1,1v3A2,2,0,0,1,38.852,16,2.129,2.129,0,0,1,37,13.831V11a1,1,0,0,0-1-1H28a1,1,0,0,0-1,1v3A2,2,0,0,1,24.852,16,2.129,2.129,0,0,1,23,13.831V11a1,1,0,0,0-1-1H14a1,1,0,0,0-1,1v3A2,2,0,0,1,10.852,16,2.129,2.129,0,0,1,9,13.831V11a1,1,0,0,0-1-1H6a6.006,6.006,0,0,0-6,6v6H64V16A6.006,6.006,0,0,0,58,10Z" style="fill:#e63b47"/><path d="M11,4A4,4,0,0,0,7,8v6a4,4,0,0,0,8,0V8A4,4,0,0,0,11,4Z" style="fill:#4aa4f2"/><path d="M25,4a4,4,0,0,0-4,4v6a4,4,0,0,0,8,0V8A4,4,0,0,0,25,4Z" style="fill:#4aa4f2"/><path d="M39,4a4,4,0,0,0-4,4v6a4,4,0,0,0,8,0V8A4,4,0,0,0,39,4Z" style="fill:#4aa4f2"/><path d="M53,4a4,4,0,0,0-4,4v6a4,4,0,0,0,8,0V8A4,4,0,0,0,53,4Z" style="fill:#4aa4f2"/><circle cx="41" cy="41" r="11" style="fill:#ffc170"/><path d="M27,36H13a1,1,0,0,1,0-2H27a1,1,0,0,1,0,2Z" style="fill:#fc9942"/><path d="M27,48H21a1,1,0,0,1,0-2h6a1,1,0,0,1,0,2Z" style="fill:#fc9942"/><path d="M27,42H17a1,1,0,0,1,0-2H27a1,1,0,0,1,0,2Z" style="fill:#fc9942"/><path d="M44,45a1,1,0,0,1-.707-.293l-3-3A1,1,0,0,1,40,41V36a1,1,0,0,1,2,0v4.586l2.707,2.707A1,1,0,0,1,44,45Z" style="fill:#fc9942"/></g></svg>