<?xml version="1.0" encoding="utf-8"?>
<!-- Generator: Adobe Illustrator 22.0.1, SVG Export Plug-In . SVG Version: 6.00 Build 0)  -->
<svg version="1.1" id="Layer_1" xmlns="http://www.w3.org/2000/svg" xmlns:xlink="http://www.w3.org/1999/xlink" x="0px" y="0px"
	 viewBox="0 0 256 256" style="enable-background:new 0 0 256 256;" xml:space="preserve">
<style type="text/css">
	.st0{fill:#3A312A;}
	.st1{fill:#FCE8CB;}
	.st2{fill:#8AC5DC;}
	.st3{fill:#ED6E7A;}
	.st4{fill:#D7E057;}
	.st5{fill:#87796F;}
	.st6{fill:#695B51;}
	.st7{fill:#EF6D7A;}
	.st8{fill:#D6DF58;}
	.st9{fill:#6A5C52;}
	.st10{fill:#F16C7A;}
	.st11{fill:#8AC6DD;}
	.st12{fill:#D34E5C;}
	.st13{fill:#B9C239;}
	.st14{fill:#6CA8BF;}
	.st15{fill:#89C4DB;}
	.st16{fill:#D5DE58;}
	.st17{fill:#DECAAD;}
	.st18{fill:#D5DC57;}
	.st19{fill:#8AC3DA;}
	.st20{fill:#D4DB56;}
	.st21{fill:#EA6D7A;}
	.st22{fill:#FAE6CA;}
	.st23{fill:#EB6E7A;}
	.st24{fill:#F8E4C8;}
	.st25{fill:#E96C7A;}
	.st26{fill:#8AC2D9;}
	.st27{fill:#E86C7A;}
	.st28{fill:#8AC1D8;}
	.st29{fill:#D4DA55;}
</style>
<g>
	<g>
		<g>
			<path class="st0" d="M239.375,226.625h-209.5v-210.5c0-0.829-0.671-1.5-1.5-1.5s-1.5,0.671-1.5,1.5v212
				c0,0.829,0.671,1.5,1.5,1.5h211c0.829,0,1.5-0.671,1.5-1.5C240.875,227.296,240.204,226.625,239.375,226.625z"/>
		</g>
	</g>
	<g>
		<g>
			<path class="st0" d="M28.375,226.625c-0.829,0-1.5,0.671-1.5,1.5v11.75c0,0.829,0.671,1.5,1.5,1.5s1.5-0.671,1.5-1.5v-11.75
				C29.875,227.296,29.204,226.625,28.375,226.625z"/>
		</g>
	</g>
	<g>
		<g>
			<path class="st0" d="M76.283,226.625c-0.829,0-1.5,0.671-1.5,1.5v11.75c0,0.829,0.671,1.5,1.5,1.5s1.5-0.671,1.5-1.5v-11.75
				C77.783,227.296,77.112,226.625,76.283,226.625z"/>
		</g>
	</g>
	<g>
		<g>
			<path class="st0" d="M176.716,226.625c-0.829,0-1.5,0.671-1.5,1.5v11.75c0,0.829,0.671,1.5,1.5,1.5s1.5-0.671,1.5-1.5v-11.75
				C178.216,227.296,177.545,226.625,176.716,226.625z"/>
		</g>
	</g>
	<g>
		<g>
			<path class="st0" d="M28.375,226.625h-11.75c-0.829,0-1.5,0.671-1.5,1.5c0,0.829,0.671,1.5,1.5,1.5h11.75
				c0.829,0,1.5-0.671,1.5-1.5C29.875,227.296,29.204,226.625,28.375,226.625z"/>
		</g>
	</g>
	<g>
		<g>
			<path class="st0" d="M28.375,193.155h-11.75c-0.829,0-1.5,0.671-1.5,1.5c0,0.829,0.671,1.5,1.5,1.5h11.75
				c0.829,0,1.5-0.671,1.5-1.5C29.875,193.826,29.204,193.155,28.375,193.155z"/>
		</g>
	</g>
	<g>
		<g>
			<path class="st0" d="M28.375,159.695h-11.75c-0.829,0-1.5,0.671-1.5,1.5s0.671,1.5,1.5,1.5h11.75c0.829,0,1.5-0.671,1.5-1.5
				S29.204,159.695,28.375,159.695z"/>
		</g>
	</g>
	<g>
		<g>
			<path class="st0" d="M28.375,126.225h-11.75c-0.829,0-1.5,0.671-1.5,1.5c0,0.829,0.671,1.5,1.5,1.5h11.75
				c0.829,0,1.5-0.671,1.5-1.5C29.875,126.897,29.204,126.225,28.375,126.225z"/>
		</g>
	</g>
	<g>
		<g>
			<path class="st0" d="M28.375,92.765h-11.75c-0.829,0-1.5,0.671-1.5,1.5s0.671,1.5,1.5,1.5h11.75c0.829,0,1.5-0.671,1.5-1.5
				S29.204,92.765,28.375,92.765z"/>
		</g>
	</g>
	<g>
		<g>
			<path class="st0" d="M28.375,59.295h-11.75c-0.829,0-1.5,0.671-1.5,1.5c0,0.829,0.671,1.5,1.5,1.5h11.75
				c0.829,0,1.5-0.671,1.5-1.5C29.875,59.966,29.204,59.295,28.375,59.295z"/>
		</g>
	</g>
	<g>
		<g>
			<path class="st0" d="M28.375,25.835h-11.75c-0.829,0-1.5,0.671-1.5,1.5s0.671,1.5,1.5,1.5h11.75c0.829,0,1.5-0.671,1.5-1.5
				S29.204,25.835,28.375,25.835z"/>
		</g>
	</g>
	<g>
		<g>
			<rect x="39.807" y="68.332" class="st7" width="36.477" height="159.793"/>
		</g>
	</g>
	<g>
		<g>
			<path class="st0" d="M76.283,66.833H39.807c-0.829,0-1.5,0.671-1.5,1.5v159.792c0,0.829,0.671,1.5,1.5,1.5h36.477
				c0.829,0,1.5-0.671,1.5-1.5V68.333C77.783,67.504,77.112,66.833,76.283,66.833z M74.783,226.625H41.307V69.833h33.477V226.625z"
				/>
		</g>
	</g>
	<g>
		<g>
			<polygon class="st8" points="101.177,97.32 87.491,97.32 76.283,97.32 76.283,228.125 112.76,228.125 112.76,97.32 			"/>
		</g>
	</g>
	<g>
		<g>
			<path class="st0" d="M112.76,95.82h-11.583c-0.829,0-1.5,0.671-1.5,1.5s0.671,1.5,1.5,1.5h10.083v127.805H77.783V98.82h9.708
				c0.829,0,1.5-0.671,1.5-1.5s-0.671-1.5-1.5-1.5H76.283c-0.829,0-1.5,0.671-1.5,1.5v130.805c0,0.829,0.671,1.5,1.5,1.5h36.477
				c0.829,0,1.5-0.671,1.5-1.5V97.32C114.26,96.492,113.588,95.82,112.76,95.82z"/>
		</g>
	</g>
	<g>
		<g>
			<polygon class="st7" points="140.08,48.125 140.08,61.002 140.08,74.248 140.08,228.125 176.557,228.125 176.557,48.125 			"/>
		</g>
	</g>
	<g>
		<g>
			<path class="st0" d="M176.557,46.625H140.08c-0.829,0-1.5,0.671-1.5,1.5v12.877c0,0.829,0.671,1.5,1.5,1.5
				c0.829,0,1.5-0.671,1.5-1.5V49.625h33.477v177H141.58V74.248c0-0.829-0.671-1.5-1.5-1.5c-0.829,0-1.5,0.671-1.5,1.5v153.877
				c0,0.829,0.671,1.5,1.5,1.5h36.477c0.829,0,1.5-0.671,1.5-1.5v-180C178.057,47.296,177.386,46.625,176.557,46.625z"/>
		</g>
	</g>
	<g>
		<g>
			<rect x="176.716" y="73.7" class="st8" width="36.477" height="154.425"/>
		</g>
	</g>
	<g>
		<g>
			<path class="st0" d="M213.193,72.2h-36.477c-0.829,0-1.5,0.671-1.5,1.5v154.425c0,0.829,0.671,1.5,1.5,1.5h36.477
				c0.829,0,1.5-0.671,1.5-1.5V73.7C214.693,72.872,214.022,72.2,213.193,72.2z M211.693,226.625h-33.477V75.2h33.477V226.625z"/>
		</g>
	</g>
	<g>
		<g>
			<rect x="196.69" y="75.2" class="st13" width="15" height="151.42"/>
		</g>
	</g>
</g>
</svg>
