<svg xmlns="http://www.w3.org/2000/svg" xmlns:xlink="http://www.w3.org/1999/xlink" viewBox="0 0 64 64"><defs><style>.cls-1{fill:url(#linear-gradient);}.cls-2{fill:url(#linear-gradient-2);}.cls-3{fill:url(#linear-gradient-3);}.cls-4{fill:url(#linear-gradient-4);}.cls-5{fill:url(#linear-gradient-5);}.cls-6{fill:url(#linear-gradient-6);}.cls-7{fill:url(#linear-gradient-7);}.cls-8{fill:url(#linear-gradient-8);}.cls-9{fill:url(#linear-gradient-9);}.cls-10{fill:url(#linear-gradient-10);}.cls-11{fill:url(#linear-gradient-11);}.cls-12{fill:url(#linear-gradient-12);}.cls-13{fill:url(#linear-gradient-13);}.cls-14{fill:url(#linear-gradient-14);}.cls-15{fill:url(#linear-gradient-15);}.cls-16{fill:url(#linear-gradient-16);}.cls-17{fill:url(#linear-gradient-17);}.cls-18{fill:url(#linear-gradient-18);}.cls-19{fill:url(#linear-gradient-19);}.cls-20{fill:url(#linear-gradient-20);}.cls-21{fill:url(#linear-gradient-21);}</style><linearGradient id="linear-gradient" x1="4" y1="12" x2="60" y2="12" gradientUnits="userSpaceOnUse"><stop offset="0" stop-color="#54a5ff"/><stop offset="1" stop-color="#8ad3fe"/></linearGradient><linearGradient id="linear-gradient-2" y1="56" y2="56" xlink:href="#linear-gradient"/><linearGradient id="linear-gradient-3" x1="4.5" y1="40.5" x2="17.5" y2="27.5" gradientUnits="userSpaceOnUse"><stop offset="0" stop-color="#d3e6f5"/><stop offset="1" stop-color="#f0f7fc"/></linearGradient><linearGradient id="linear-gradient-4" x1="18.5" y1="40.5" x2="31.5" y2="27.5" xlink:href="#linear-gradient-3"/><linearGradient id="linear-gradient-5" x1="32.5" y1="40.5" x2="45.5" y2="27.5" xlink:href="#linear-gradient-3"/><linearGradient id="linear-gradient-6" x1="46.5" y1="40.5" x2="59.5" y2="27.5" xlink:href="#linear-gradient-3"/><linearGradient id="linear-gradient-7" x1="4.5" y1="28.5" x2="17.5" y2="15.5" xlink:href="#linear-gradient-3"/><linearGradient id="linear-gradient-8" x1="18.5" y1="28.5" x2="31.5" y2="15.5" xlink:href="#linear-gradient-3"/><linearGradient id="linear-gradient-9" x1="32.5" y1="28.5" x2="45.5" y2="15.5" xlink:href="#linear-gradient-3"/><linearGradient id="linear-gradient-10" x1="46.5" y1="28.5" x2="59.5" y2="15.5" xlink:href="#linear-gradient-3"/><linearGradient id="linear-gradient-11" x1="4.5" y1="52.5" x2="17.5" y2="39.5" xlink:href="#linear-gradient-3"/><linearGradient id="linear-gradient-12" x1="18.5" y1="52.5" x2="31.5" y2="39.5" xlink:href="#linear-gradient-3"/><linearGradient id="linear-gradient-13" x1="32.5" y1="52.5" x2="45.5" y2="39.5" xlink:href="#linear-gradient-3"/><linearGradient id="linear-gradient-14" x1="46.5" y1="52.5" x2="59.5" y2="39.5" xlink:href="#linear-gradient-3"/><linearGradient id="linear-gradient-15" x1="47" y1="8" x2="51" y2="8" gradientUnits="userSpaceOnUse"><stop offset="0" stop-color="#fe9661"/><stop offset="1" stop-color="#ffb369"/></linearGradient><linearGradient id="linear-gradient-16" x1="39" x2="43" xlink:href="#linear-gradient-15"/><linearGradient id="linear-gradient-17" x1="21" x2="25" xlink:href="#linear-gradient-15"/><linearGradient id="linear-gradient-18" x1="13" x2="17" xlink:href="#linear-gradient-15"/><linearGradient id="linear-gradient-19" x1="21" y1="34" x2="29" y2="34" xlink:href="#linear-gradient-15"/><linearGradient id="linear-gradient-20" x1="35" y1="46" x2="43" y2="46" xlink:href="#linear-gradient-15"/><linearGradient id="linear-gradient-21" x1="49" y1="22" x2="57" y2="22" xlink:href="#linear-gradient-15"/></defs><title>Schedule</title><g id="Schedule"><path class="cls-1" d="M60,12v4H4V12A4,4,0,0,1,8,8h5v2a2,2,0,0,0,2,2,2,2,0,0,0,2-2V8h4v2a2,2,0,0,0,2,2,2,2,0,0,0,2-2V8H39v2a2,2,0,0,0,2,2,2,2,0,0,0,2-2V8h4v2a2,2,0,0,0,2,2,2,2,0,0,0,2-2V8h5A4,4,0,0,1,60,12Z"/><path class="cls-2" d="M60,52v4a4,4,0,0,1-4,4H8a4,4,0,0,1-4-4V52Z"/><rect class="cls-3" x="4" y="28" width="14" height="12"/><rect class="cls-4" x="18" y="28" width="14" height="12"/><rect class="cls-5" x="32" y="28" width="14" height="12"/><rect class="cls-6" x="46" y="28" width="14" height="12"/><rect class="cls-7" x="4" y="16" width="14" height="12"/><rect class="cls-8" x="18" y="16" width="14" height="12"/><rect class="cls-9" x="32" y="16" width="14" height="12"/><rect class="cls-10" x="46" y="16" width="14" height="12"/><rect class="cls-11" x="4" y="40" width="14" height="12"/><rect class="cls-12" x="18" y="40" width="14" height="12"/><rect class="cls-13" x="32" y="40" width="14" height="12"/><rect class="cls-14" x="46" y="40" width="14" height="12"/><path class="cls-15" d="M51,6v4a2,2,0,0,1-2,2,2,2,0,0,1-2-2V6a2,2,0,0,1,4,0Z"/><path class="cls-16" d="M43,6v4a2,2,0,0,1-2,2,2,2,0,0,1-2-2V6a2,2,0,0,1,4,0Z"/><path class="cls-17" d="M25,6v4a2,2,0,0,1-2,2,2,2,0,0,1-2-2V6a2,2,0,0,1,4,0Z"/><path class="cls-18" d="M17,6v4a2,2,0,0,1-2,2,2,2,0,0,1-2-2V6a2,2,0,0,1,4,0Z"/><path class="cls-19" d="M24,37a1,1,0,0,1-.71-.29l-2-2a1,1,0,0,1,1.42-1.42L24,34.59l3.29-3.3a1,1,0,0,1,1.42,1.42l-4,4A1,1,0,0,1,24,37Z"/><path class="cls-20" d="M38,49a1,1,0,0,1-.71-.29l-2-2a1,1,0,0,1,1.42-1.42L38,46.59l3.29-3.3a1,1,0,0,1,1.42,1.42l-4,4A1,1,0,0,1,38,49Z"/><path class="cls-21" d="M52,25a1,1,0,0,1-.71-.29l-2-2a1,1,0,0,1,1.42-1.42L52,22.59l3.29-3.3a1,1,0,0,1,1.42,1.42l-4,4A1,1,0,0,1,52,25Z"/></g></svg>