<?xml version="1.0" encoding="utf-8"?>
<!-- Generator: Adobe Illustrator 22.0.1, SVG Export Plug-In . SVG Version: 6.00 Build 0)  -->
<svg version="1.1" id="Layer_1" xmlns="http://www.w3.org/2000/svg" xmlns:xlink="http://www.w3.org/1999/xlink" x="0px" y="0px"
	 viewBox="0 0 256 256" style="enable-background:new 0 0 256 256;" xml:space="preserve">
<style type="text/css">
	.st0{fill:#3A312A;}
	.st1{fill:#FCE8CB;}
	.st2{fill:#8AC5DC;}
	.st3{fill:#ED6E7A;}
	.st4{fill:#D7E057;}
	.st5{fill:#87796F;}
	.st6{fill:#695B51;}
	.st7{fill:#EF6D7A;}
	.st8{fill:#D6DF58;}
	.st9{fill:#6A5C52;}
	.st10{fill:#F16C7A;}
	.st11{fill:#8AC6DD;}
	.st12{fill:#D34E5C;}
	.st13{fill:#B9C239;}
	.st14{fill:#6CA8BF;}
	.st15{fill:#89C4DB;}
	.st16{fill:#D5DE58;}
	.st17{fill:#DECAAD;}
	.st18{fill:#D5DC57;}
	.st19{fill:#8AC3DA;}
	.st20{fill:#D4DB56;}
	.st21{fill:#EA6D7A;}
	.st22{fill:#FAE6CA;}
	.st23{fill:#EB6E7A;}
	.st24{fill:#F8E4C8;}
	.st25{fill:#E96C7A;}
	.st26{fill:#8AC2D9;}
	.st27{fill:#E86C7A;}
	.st28{fill:#8AC1D8;}
	.st29{fill:#D4DA55;}
</style>
<g>
	<g>
		<g>
			<polygon class="st11" points="180.933,86.31 140.933,119.5 119.573,124.568 106.158,127.752 81.933,133.5 40.933,191.29 
				40.933,228.12 227.933,228.12 227.933,163.5 			"/>
		</g>
	</g>
	<g>
		<g>
			<path class="st0" d="M229.214,162.72l-47-77.19c-0.227-0.372-0.604-0.628-1.034-0.699c-0.431-0.072-0.869,0.047-1.205,0.325
				l-39.729,32.966l-21.018,4.987c-0.806,0.191-1.304,1-1.112,1.806c0.19,0.806,0.989,1.305,1.806,1.113l21.359-5.068
				c0.225-0.053,0.434-0.158,0.611-0.305l38.664-32.081l45.878,75.348v62.699h-184v-34.852l40.397-56.939l23.676-5.618
				c0.806-0.191,1.304-1,1.112-1.806c-0.19-0.806-0.992-1.308-1.806-1.113l-24.226,5.749c-0.354,0.084-0.666,0.294-0.877,0.591
				l-41,57.79c-0.18,0.254-0.276,0.557-0.276,0.868v36.83c0,0.829,0.672,1.5,1.5,1.5h187c0.828,0,1.5-0.671,1.5-1.5V163.5
				C229.433,163.225,229.356,162.955,229.214,162.72z"/>
		</g>
	</g>
	<g>
		<g>
			<polygon class="st10" points="178.853,164.5 133.343,139.5 86.923,188.5 73.223,179.995 61.372,172.639 40.933,159.95 
				40.933,228.12 227.933,228.12 227.933,119.56 			"/>
		</g>
	</g>
	<g>
		<g>
			<path class="st0" d="M228.537,118.187c-0.546-0.239-1.179-0.135-1.617,0.267l-48.287,44.214l-44.567-24.482
				c-0.6-0.329-1.343-0.212-1.812,0.283l-45.579,48.112l-12.661-7.86c-0.701-0.436-1.628-0.221-2.065,0.483
				c-0.437,0.704-0.221,1.628,0.483,2.065l13.7,8.505c0.607,0.377,1.392,0.273,1.88-0.243l45.624-48.16l44.494,24.442
				c0.564,0.309,1.261,0.226,1.735-0.208l46.567-42.639V226.62h-184v-63.973l18.148,11.266c0.702,0.436,1.628,0.221,2.065-0.483
				c0.437-0.704,0.221-1.628-0.483-2.065l-20.44-12.688c-0.464-0.287-1.044-0.3-1.521-0.037c-0.476,0.265-0.771,0.767-0.771,1.311
				v68.17c0,0.829,0.672,1.5,1.5,1.5h187c0.828,0,1.5-0.671,1.5-1.5V119.56C229.433,118.965,229.081,118.427,228.537,118.187z"/>
		</g>
	</g>
	<g>
		<g>
			<path class="st0" d="M28.377,226.625c-0.828,0-1.5,0.671-1.5,1.5v11.75c0,0.829,0.672,1.5,1.5,1.5c0.828,0,1.5-0.671,1.5-1.5
				v-11.75C29.877,227.296,29.205,226.625,28.377,226.625z"/>
		</g>
	</g>
	<g>
		<g>
			<path class="st0" d="M61.848,226.625c-0.828,0-1.5,0.671-1.5,1.5v11.75c0,0.829,0.672,1.5,1.5,1.5c0.828,0,1.5-0.671,1.5-1.5
				v-11.75C63.348,227.296,62.676,226.625,61.848,226.625z"/>
		</g>
	</g>
	<g>
		<g>
			<path class="st0" d="M95.308,226.625c-0.828,0-1.5,0.671-1.5,1.5v11.75c0,0.829,0.672,1.5,1.5,1.5c0.828,0,1.5-0.671,1.5-1.5
				v-11.75C96.808,227.296,96.136,226.625,95.308,226.625z"/>
		</g>
	</g>
	<g>
		<g>
			<path class="st0" d="M128.777,226.625c-0.828,0-1.5,0.671-1.5,1.5v11.75c0,0.829,0.672,1.5,1.5,1.5c0.828,0,1.5-0.671,1.5-1.5
				v-11.75C130.277,227.296,129.606,226.625,128.777,226.625z"/>
		</g>
	</g>
	<g>
		<g>
			<path class="st0" d="M162.237,226.625c-0.828,0-1.5,0.671-1.5,1.5v11.75c0,0.829,0.672,1.5,1.5,1.5s1.5-0.671,1.5-1.5v-11.75
				C163.737,227.296,163.065,226.625,162.237,226.625z"/>
		</g>
	</g>
	<g>
		<g>
			<path class="st0" d="M195.707,226.625c-0.828,0-1.5,0.671-1.5,1.5v11.75c0,0.829,0.672,1.5,1.5,1.5s1.5-0.671,1.5-1.5v-11.75
				C197.207,227.296,196.535,226.625,195.707,226.625z"/>
		</g>
	</g>
	<g>
		<g>
			<path class="st0" d="M229.167,226.625c-0.828,0-1.5,0.671-1.5,1.5v11.75c0,0.829,0.672,1.5,1.5,1.5s1.5-0.671,1.5-1.5v-11.75
				C230.667,227.296,229.995,226.625,229.167,226.625z"/>
		</g>
	</g>
	<g>
		<g>
			<path class="st0" d="M28.377,226.625h-11.75c-0.828,0-1.5,0.671-1.5,1.5s0.672,1.5,1.5,1.5h11.75c0.828,0,1.5-0.671,1.5-1.5
				S29.205,226.625,28.377,226.625z"/>
		</g>
	</g>
	<g>
		<g>
			<path class="st0" d="M28.377,193.155h-11.75c-0.828,0-1.5,0.671-1.5,1.5c0,0.829,0.672,1.5,1.5,1.5h11.75
				c0.828,0,1.5-0.671,1.5-1.5C29.877,193.826,29.205,193.155,28.377,193.155z"/>
		</g>
	</g>
	<g>
		<g>
			<path class="st0" d="M28.377,159.695h-11.75c-0.828,0-1.5,0.671-1.5,1.5s0.672,1.5,1.5,1.5h11.75c0.828,0,1.5-0.671,1.5-1.5
				S29.205,159.695,28.377,159.695z"/>
		</g>
	</g>
	<g>
		<g>
			<path class="st0" d="M28.377,126.225h-11.75c-0.828,0-1.5,0.671-1.5,1.5c0,0.829,0.672,1.5,1.5,1.5h11.75
				c0.828,0,1.5-0.671,1.5-1.5C29.877,126.897,29.205,126.225,28.377,126.225z"/>
		</g>
	</g>
	<g>
		<g>
			<path class="st0" d="M28.377,92.765h-11.75c-0.828,0-1.5,0.671-1.5,1.5c0,0.829,0.672,1.5,1.5,1.5h11.75
				c0.828,0,1.5-0.671,1.5-1.5C29.877,93.437,29.205,92.765,28.377,92.765z"/>
		</g>
	</g>
	<g>
		<g>
			<path class="st0" d="M28.377,59.295h-11.75c-0.828,0-1.5,0.671-1.5,1.5s0.672,1.5,1.5,1.5h11.75c0.828,0,1.5-0.671,1.5-1.5
				S29.205,59.295,28.377,59.295z"/>
		</g>
	</g>
	<g>
		<g>
			<path class="st0" d="M28.377,25.835h-11.75c-0.828,0-1.5,0.671-1.5,1.5c0,0.829,0.672,1.5,1.5,1.5h11.75
				c0.828,0,1.5-0.671,1.5-1.5C29.877,26.506,29.205,25.835,28.377,25.835z"/>
		</g>
	</g>
	<g>
		<g>
			<path class="st0" d="M239.373,226.62h-209.5V16.12c0-0.829-0.672-1.5-1.5-1.5c-0.828,0-1.5,0.671-1.5,1.5v212
				c0,0.829,0.672,1.5,1.5,1.5h211c0.828,0,1.5-0.671,1.5-1.5S240.201,226.62,239.373,226.62z"/>
		</g>
	</g>
	<g>
		<g>
			<polygon class="st12" points="211.433,136.7 211.433,226.62 226.433,226.62 226.433,122.97 			"/>
		</g>
	</g>
</g>
</svg>
